<?xml version="1.0" encoding="UTF-8" standalone="no"?>
<!DOCTYPE svg PUBLIC "-//W3C//DTD SVG 1.1//EN" "http://www.w3.org/Graphics/SVG/1.1/DTD/svg11.dtd">
<!-- Generated by graphviz version 2.40.1 (20161225.0304)
 -->
<!-- Title: G Pages: 1 -->
<svg width="3028pt" height="404pt" viewBox="0.00 0.00 3028.35 404.00" xmlns="http://www.w3.org/2000/svg" xmlns:xlink="http://www.w3.org/1999/xlink">
<g id="graph0" class="graph" transform="scale(1 1) rotate(0) translate(4 400)">
<title>G</title>
<polygon fill="#ffffff" stroke="transparent" points="-4,4 -4,-400 3024.3546,-400 3024.3546,4 -4,4"/>
<!-- OriginsBase -->
<g id="node1" class="node">
<title>OriginsBase</title>
<ellipse fill="none" stroke="#000000" cx="107.2173" cy="-378" rx="58.5444" ry="18"/>
<text text-anchor="middle" x="107.2173" y="-373.8" font-family="Times,serif" font-size="14.00" fill="#000000">OriginsBase</text>
</g>
<!-- IOrigins -->
<g id="node2" class="node">
<title>IOrigins</title>
<ellipse fill="none" stroke="#000000" cx="43.2173" cy="-306" rx="43.4357" ry="18"/>
<text text-anchor="middle" x="43.2173" y="-301.8" font-family="Times,serif" font-size="14.00" fill="#000000">IOrigins</text>
</g>
<!-- OriginsBase&#45;&gt;IOrigins -->
<g id="edge1" class="edge">
<title>OriginsBase-&gt;IOrigins</title>
<path fill="none" stroke="#000000" d="M91.7247,-360.5708C83.7848,-351.6385 73.9779,-340.6056 65.2644,-330.8029"/>
<polygon fill="#000000" stroke="#000000" points="67.8269,-328.4175 58.5673,-323.2687 62.595,-333.0681 67.8269,-328.4175"/>
</g>
<!-- OriginsEvents -->
<g id="node3" class="node">
<title>OriginsEvents</title>
<ellipse fill="none" stroke="#000000" cx="171.2173" cy="-306" rx="66.0704" ry="18"/>
<text text-anchor="middle" x="171.2173" y="-301.8" font-family="Times,serif" font-size="14.00" fill="#000000">OriginsEvents</text>
</g>
<!-- OriginsBase&#45;&gt;OriginsEvents -->
<g id="edge2" class="edge">
<title>OriginsBase-&gt;OriginsEvents</title>
<path fill="none" stroke="#000000" d="M122.7099,-360.5708C130.5914,-351.7041 140.3126,-340.7678 148.9779,-331.0194"/>
<polygon fill="#000000" stroke="#000000" points="151.6178,-333.3176 155.6455,-323.5182 146.3859,-328.6671 151.6178,-333.3176"/>
</g>
<!-- OriginsAdmin -->
<g id="node4" class="node">
<title>OriginsAdmin</title>
<ellipse fill="none" stroke="#000000" cx="171.2173" cy="-234" rx="66.6537" ry="18"/>
<text text-anchor="middle" x="171.2173" y="-229.8" font-family="Times,serif" font-size="14.00" fill="#000000">OriginsAdmin</text>
</g>
<!-- OriginsEvents&#45;&gt;OriginsAdmin -->
<g id="edge3" class="edge">
<title>OriginsEvents-&gt;OriginsAdmin</title>
<path fill="none" stroke="#000000" d="M171.2173,-287.8314C171.2173,-280.131 171.2173,-270.9743 171.2173,-262.4166"/>
<polygon fill="#000000" stroke="#000000" points="174.7174,-262.4132 171.2173,-252.4133 167.7174,-262.4133 174.7174,-262.4132"/>
</g>
<!-- OriginsStorage -->
<g id="node5" class="node">
<title>OriginsStorage</title>
<ellipse fill="none" stroke="#000000" cx="171.2173" cy="-162" rx="69.4993" ry="18"/>
<text text-anchor="middle" x="171.2173" y="-157.8" font-family="Times,serif" font-size="14.00" fill="#000000">OriginsStorage</text>
</g>
<!-- OriginsAdmin&#45;&gt;OriginsStorage -->
<g id="edge4" class="edge">
<title>OriginsAdmin-&gt;OriginsStorage</title>
<path fill="none" stroke="#000000" d="M171.2173,-215.8314C171.2173,-208.131 171.2173,-198.9743 171.2173,-190.4166"/>
<polygon fill="#000000" stroke="#000000" points="174.7174,-190.4132 171.2173,-180.4133 167.7174,-190.4133 174.7174,-190.4132"/>
</g>
<!-- IERC20 -->
<g id="node6" class="node">
<title>IERC20</title>
<ellipse fill="none" stroke="#000000" cx="226.2173" cy="-378" rx="42.8771" ry="18"/>
<text text-anchor="middle" x="226.2173" y="-373.8" font-family="Times,serif" font-size="14.00" fill="#000000">IERC20</text>
</g>
<!-- SafeMath -->
<g id="node7" class="node">
<title>SafeMath</title>
<ellipse fill="none" stroke="#000000" cx="335.2173" cy="-378" rx="48.652" ry="18"/>
<text text-anchor="middle" x="335.2173" y="-373.8" font-family="Times,serif" font-size="14.00" fill="#000000">SafeMath</text>
</g>
<!-- ILockedFund -->
<g id="node8" class="node">
<title>ILockedFund</title>
<ellipse fill="none" stroke="#000000" cx="461.2173" cy="-306" rx="63.1267" ry="18"/>
<text text-anchor="middle" x="461.2173" y="-301.8" font-family="Times,serif" font-size="14.00" fill="#000000">ILockedFund</text>
</g>
<!-- RSKAddrValidator -->
<g id="node9" class="node">
<title>RSKAddrValidator</title>
<ellipse fill="none" stroke="#000000" cx="739.2173" cy="-378" rx="86.2541" ry="18"/>
<text text-anchor="middle" x="739.2173" y="-373.8" font-family="Times,serif" font-size="14.00" fill="#000000">RSKAddrValidator</text>
</g>
<!-- FeeSharingProxyMockup -->
<g id="node10" class="node">
<title>FeeSharingProxyMockup</title>
<ellipse fill="none" stroke="#000000" cx="652.2173" cy="-306" rx="110.0411" ry="18"/>
<text text-anchor="middle" x="652.2173" y="-301.8" font-family="Times,serif" font-size="14.00" fill="#000000">FeeSharingProxyMockup</text>
</g>
<!-- FeeSharingProxy -->
<g id="node11" class="node">
<title>FeeSharingProxy</title>
<ellipse fill="none" stroke="#000000" cx="676.2173" cy="-234" rx="78.1714" ry="18"/>
<text text-anchor="middle" x="676.2173" y="-229.8" font-family="Times,serif" font-size="14.00" fill="#000000">FeeSharingProxy</text>
</g>
<!-- FeeSharingProxyMockup&#45;&gt;FeeSharingProxy -->
<g id="edge5" class="edge">
<title>FeeSharingProxyMockup-&gt;FeeSharingProxy</title>
<path fill="none" stroke="#000000" d="M658.2735,-287.8314C660.8685,-280.0463 663.9597,-270.7729 666.8391,-262.1347"/>
<polygon fill="#000000" stroke="#000000" points="670.2376,-263.0069 670.0796,-252.4133 663.5968,-260.7933 670.2376,-263.0069"/>
</g>
<!-- SafeMath96 -->
<g id="node12" class="node">
<title>SafeMath96</title>
<ellipse fill="none" stroke="#000000" cx="846.2173" cy="-162" rx="58.4667" ry="18"/>
<text text-anchor="middle" x="846.2173" y="-157.8" font-family="Times,serif" font-size="14.00" fill="#000000">SafeMath96</text>
</g>
<!-- FeeSharingProxy&#45;&gt;SafeMath96 -->
<g id="edge6" class="edge">
<title>FeeSharingProxy-&gt;SafeMath96</title>
<path fill="none" stroke="#000000" d="M713.9458,-218.0209C740.109,-206.94 775.0333,-192.1485 802.4256,-180.5471"/>
<polygon fill="#000000" stroke="#000000" points="803.9305,-183.7107 811.7737,-176.5879 801.2005,-177.265 803.9305,-183.7107"/>
</g>
<!-- IFeeSharingProxy -->
<g id="node13" class="node">
<title>IFeeSharingProxy</title>
<ellipse fill="none" stroke="#000000" cx="676.2173" cy="-162" rx="81.1014" ry="18"/>
<text text-anchor="middle" x="676.2173" y="-157.8" font-family="Times,serif" font-size="14.00" fill="#000000">IFeeSharingProxy</text>
</g>
<!-- FeeSharingProxy&#45;&gt;IFeeSharingProxy -->
<g id="edge7" class="edge">
<title>FeeSharingProxy-&gt;IFeeSharingProxy</title>
<path fill="none" stroke="#000000" d="M676.2173,-215.8314C676.2173,-208.131 676.2173,-198.9743 676.2173,-190.4166"/>
<polygon fill="#000000" stroke="#000000" points="679.7174,-190.4132 676.2173,-180.4133 672.7174,-190.4133 679.7174,-190.4132"/>
</g>
<!-- IProtocol -->
<g id="node14" class="node">
<title>IProtocol</title>
<ellipse fill="none" stroke="#000000" cx="1945.2173" cy="-378" rx="46.9477" ry="18"/>
<text text-anchor="middle" x="1945.2173" y="-373.8" font-family="Times,serif" font-size="14.00" fill="#000000">IProtocol</text>
</g>
<!-- ILoanToken -->
<g id="node15" class="node">
<title>ILoanToken</title>
<ellipse fill="none" stroke="#000000" cx="2069.2173" cy="-378" rx="58.5328" ry="18"/>
<text text-anchor="middle" x="2069.2173" y="-373.8" font-family="Times,serif" font-size="14.00" fill="#000000">ILoanToken</text>
</g>
<!-- SafeERC20 -->
<g id="node16" class="node">
<title>SafeERC20</title>
<ellipse fill="none" stroke="#000000" cx="2202.2173" cy="-378" rx="56.76" ry="18"/>
<text text-anchor="middle" x="2202.2173" y="-373.8" font-family="Times,serif" font-size="14.00" fill="#000000">SafeERC20</text>
</g>
<!-- Address -->
<g id="node17" class="node">
<title>Address</title>
<ellipse fill="none" stroke="#000000" cx="2319.2173" cy="-378" rx="42.8557" ry="18"/>
<text text-anchor="middle" x="2319.2173" y="-373.8" font-family="Times,serif" font-size="14.00" fill="#000000">Address</text>
</g>
<!-- IStaking -->
<g id="node18" class="node">
<title>IStaking</title>
<ellipse fill="none" stroke="#000000" cx="998.2173" cy="-306" rx="43.5194" ry="18"/>
<text text-anchor="middle" x="998.2173" y="-301.8" font-family="Times,serif" font-size="14.00" fill="#000000">IStaking</text>
</g>
<!-- ErrorDecoder -->
<g id="node19" class="node">
<title>ErrorDecoder</title>
<ellipse fill="none" stroke="#000000" cx="1248.2173" cy="-234" rx="64.2243" ry="18"/>
<text text-anchor="middle" x="1248.2173" y="-229.8" font-family="Times,serif" font-size="14.00" fill="#000000">ErrorDecoder</text>
</g>
<!-- Staking -->
<g id="node20" class="node">
<title>Staking</title>
<ellipse fill="none" stroke="#000000" cx="998.2173" cy="-378" rx="40.5886" ry="18"/>
<text text-anchor="middle" x="998.2173" y="-373.8" font-family="Times,serif" font-size="14.00" fill="#000000">Staking</text>
</g>
<!-- Staking&#45;&gt;IStaking -->
<g id="edge8" class="edge">
<title>Staking-&gt;IStaking</title>
<path fill="none" stroke="#000000" d="M998.2173,-359.8314C998.2173,-352.131 998.2173,-342.9743 998.2173,-334.4166"/>
<polygon fill="#000000" stroke="#000000" points="1001.7174,-334.4132 998.2173,-324.4133 994.7174,-334.4133 1001.7174,-334.4132"/>
</g>
<!-- WeightedStaking -->
<g id="node21" class="node">
<title>WeightedStaking</title>
<ellipse fill="none" stroke="#000000" cx="858.2173" cy="-306" rx="78.1714" ry="18"/>
<text text-anchor="middle" x="858.2173" y="-301.8" font-family="Times,serif" font-size="14.00" fill="#000000">WeightedStaking</text>
</g>
<!-- Staking&#45;&gt;WeightedStaking -->
<g id="edge9" class="edge">
<title>Staking-&gt;WeightedStaking</title>
<path fill="none" stroke="#000000" d="M971.5548,-364.2879C951.1037,-353.7701 922.5159,-339.0679 899.169,-327.0608"/>
<polygon fill="#000000" stroke="#000000" points="900.6735,-323.8989 890.1798,-322.4379 897.472,-330.1239 900.6735,-323.8989"/>
</g>
<!-- ApprovalReceiver -->
<g id="node22" class="node">
<title>ApprovalReceiver</title>
<ellipse fill="none" stroke="#000000" cx="1349.2173" cy="-306" rx="81.6423" ry="18"/>
<text text-anchor="middle" x="1349.2173" y="-301.8" font-family="Times,serif" font-size="14.00" fill="#000000">ApprovalReceiver</text>
</g>
<!-- Staking&#45;&gt;ApprovalReceiver -->
<g id="edge10" class="edge">
<title>Staking-&gt;ApprovalReceiver</title>
<path fill="none" stroke="#000000" d="M1035.1171,-370.4308C1092.861,-358.5859 1205.5663,-335.4669 1279.0906,-320.385"/>
<polygon fill="#000000" stroke="#000000" points="1280.1027,-323.7503 1289.1954,-318.3122 1278.696,-316.8931 1280.1027,-323.7503"/>
</g>
<!-- Checkpoints -->
<g id="node23" class="node">
<title>Checkpoints</title>
<ellipse fill="none" stroke="#000000" cx="858.2173" cy="-234" rx="59.1314" ry="18"/>
<text text-anchor="middle" x="858.2173" y="-229.8" font-family="Times,serif" font-size="14.00" fill="#000000">Checkpoints</text>
</g>
<!-- WeightedStaking&#45;&gt;Checkpoints -->
<g id="edge11" class="edge">
<title>WeightedStaking-&gt;Checkpoints</title>
<path fill="none" stroke="#000000" d="M858.2173,-287.8314C858.2173,-280.131 858.2173,-270.9743 858.2173,-262.4166"/>
<polygon fill="#000000" stroke="#000000" points="861.7174,-262.4132 858.2173,-252.4133 854.7174,-262.4133 861.7174,-262.4132"/>
</g>
<!-- ApprovalReceiver&#45;&gt;ErrorDecoder -->
<g id="edge16" class="edge">
<title>ApprovalReceiver-&gt;ErrorDecoder</title>
<path fill="none" stroke="#000000" d="M1325.0253,-288.7542C1311.5607,-279.1557 1294.6343,-267.0894 1280.1002,-256.7284"/>
<polygon fill="#000000" stroke="#000000" points="1282.0379,-253.8115 1271.8634,-250.8566 1277.9746,-259.5114 1282.0379,-253.8115"/>
</g>
<!-- IApproveAndCall -->
<g id="node29" class="node">
<title>IApproveAndCall</title>
<ellipse fill="none" stroke="#000000" cx="1411.2173" cy="-234" rx="80.5219" ry="18"/>
<text text-anchor="middle" x="1411.2173" y="-229.8" font-family="Times,serif" font-size="14.00" fill="#000000">IApproveAndCall</text>
</g>
<!-- ApprovalReceiver&#45;&gt;IApproveAndCall -->
<g id="edge17" class="edge">
<title>ApprovalReceiver-&gt;IApproveAndCall</title>
<path fill="none" stroke="#000000" d="M1364.5432,-288.2022C1371.9952,-279.5483 1381.0871,-268.99 1389.26,-259.4988"/>
<polygon fill="#000000" stroke="#000000" points="1391.9798,-261.7041 1395.8529,-251.8425 1386.6754,-257.1364 1391.9798,-261.7041"/>
</g>
<!-- Checkpoints&#45;&gt;SafeMath96 -->
<g id="edge13" class="edge">
<title>Checkpoints-&gt;SafeMath96</title>
<path fill="none" stroke="#000000" d="M855.1892,-215.8314C853.9058,-208.131 852.3797,-198.9743 850.9534,-190.4166"/>
<polygon fill="#000000" stroke="#000000" points="854.3826,-189.7018 849.2862,-180.4133 847.4779,-190.8526 854.3826,-189.7018"/>
</g>
<!-- StakingStorage -->
<g id="node24" class="node">
<title>StakingStorage</title>
<ellipse fill="none" stroke="#000000" cx="1217.2173" cy="-162" rx="70.0828" ry="18"/>
<text text-anchor="middle" x="1217.2173" y="-157.8" font-family="Times,serif" font-size="14.00" fill="#000000">StakingStorage</text>
</g>
<!-- Checkpoints&#45;&gt;StakingStorage -->
<g id="edge12" class="edge">
<title>Checkpoints-&gt;StakingStorage</title>
<path fill="none" stroke="#000000" d="M909.1581,-224.7061C965.3511,-214.3305 1058.4005,-196.7848 1138.2173,-180 1143.6376,-178.8602 1149.2594,-177.6451 1154.8925,-176.405"/>
<polygon fill="#000000" stroke="#000000" points="1156.0015,-179.744 1165.0032,-174.1565 1154.4819,-172.9109 1156.0015,-179.744"/>
</g>
<!-- Ownable -->
<g id="node25" class="node">
<title>Ownable</title>
<ellipse fill="none" stroke="#000000" cx="1603.2173" cy="-90" rx="45.7867" ry="18"/>
<text text-anchor="middle" x="1603.2173" y="-85.8" font-family="Times,serif" font-size="14.00" fill="#000000">Ownable</text>
</g>
<!-- StakingStorage&#45;&gt;Ownable -->
<g id="edge14" class="edge">
<title>StakingStorage-&gt;Ownable</title>
<path fill="none" stroke="#000000" d="M1274.1729,-151.3762C1349.0285,-137.4135 1479.4372,-113.0885 1551.5583,-99.6359"/>
<polygon fill="#000000" stroke="#000000" points="1552.5739,-103.0069 1561.7626,-97.7325 1551.2903,-96.1256 1552.5739,-103.0069"/>
</g>
<!-- Context -->
<g id="node26" class="node">
<title>Context</title>
<ellipse fill="none" stroke="#000000" cx="1729.2173" cy="-18" rx="41.7327" ry="18"/>
<text text-anchor="middle" x="1729.2173" y="-13.8" font-family="Times,serif" font-size="14.00" fill="#000000">Context</text>
</g>
<!-- Ownable&#45;&gt;Context -->
<g id="edge15" class="edge">
<title>Ownable-&gt;Context</title>
<path fill="none" stroke="#000000" d="M1629.3246,-75.0816C1648.4129,-64.1739 1674.4779,-49.2796 1695.1965,-37.4405"/>
<polygon fill="#000000" stroke="#000000" points="1697.0573,-40.4083 1704.0033,-32.408 1693.5843,-34.3306 1697.0573,-40.4083"/>
</g>
<!-- ITeamVesting -->
<g id="node27" class="node">
<title>ITeamVesting</title>
<ellipse fill="none" stroke="#000000" cx="2446.2173" cy="-378" rx="66.0492" ry="18"/>
<text text-anchor="middle" x="2446.2173" y="-373.8" font-family="Times,serif" font-size="14.00" fill="#000000">ITeamVesting</text>
</g>
<!-- IVesting -->
<g id="node28" class="node">
<title>IVesting</title>
<ellipse fill="none" stroke="#000000" cx="1888.2173" cy="-306" rx="44.0795" ry="18"/>
<text text-anchor="middle" x="1888.2173" y="-301.8" font-family="Times,serif" font-size="14.00" fill="#000000">IVesting</text>
</g>
<!-- StakingProxy -->
<g id="node30" class="node">
<title>StakingProxy</title>
<ellipse fill="none" stroke="#000000" cx="1123.2173" cy="-306" rx="63.7258" ry="18"/>
<text text-anchor="middle" x="1123.2173" y="-301.8" font-family="Times,serif" font-size="14.00" fill="#000000">StakingProxy</text>
</g>
<!-- StakingProxy&#45;&gt;StakingStorage -->
<g id="edge18" class="edge">
<title>StakingProxy-&gt;StakingStorage</title>
<path fill="none" stroke="#000000" d="M1079.7389,-292.709C1047.8897,-281.9914 1008.6436,-266.3864 999.2173,-252 990.4484,-238.6169 989.3571,-228.6006 999.2173,-216 1001.6942,-212.8347 1091.4609,-191.3351 1155.0174,-176.4385"/>
<polygon fill="#000000" stroke="#000000" points="1156.0359,-179.7948 1164.9753,-174.1082 1154.4409,-172.9789 1156.0359,-179.7948"/>
</g>
<!-- UpgradableProxy -->
<g id="node31" class="node">
<title>UpgradableProxy</title>
<ellipse fill="none" stroke="#000000" cx="1087.2173" cy="-234" rx="79.298" ry="18"/>
<text text-anchor="middle" x="1087.2173" y="-229.8" font-family="Times,serif" font-size="14.00" fill="#000000">UpgradableProxy</text>
</g>
<!-- StakingProxy&#45;&gt;UpgradableProxy -->
<g id="edge19" class="edge">
<title>StakingProxy-&gt;UpgradableProxy</title>
<path fill="none" stroke="#000000" d="M1114.133,-287.8314C1110.0517,-279.6688 1105.1523,-269.87 1100.6587,-260.8827"/>
<polygon fill="#000000" stroke="#000000" points="1103.7767,-259.2924 1096.174,-251.9134 1097.5157,-262.423 1103.7767,-259.2924"/>
</g>
<!-- Proxy -->
<g id="node32" class="node">
<title>Proxy</title>
<ellipse fill="none" stroke="#000000" cx="1413.2173" cy="-162" rx="34.2104" ry="18"/>
<text text-anchor="middle" x="1413.2173" y="-157.8" font-family="Times,serif" font-size="14.00" fill="#000000">Proxy</text>
</g>
<!-- UpgradableProxy&#45;&gt;Proxy -->
<g id="edge20" class="edge">
<title>UpgradableProxy-&gt;Proxy</title>
<path fill="none" stroke="#000000" d="M1144.0022,-221.4586C1209.0528,-207.0916 1314.0788,-183.8956 1371.8436,-171.1377"/>
<polygon fill="#000000" stroke="#000000" points="1372.7086,-174.5311 1381.7185,-168.9568 1371.199,-167.6959 1372.7086,-174.5311"/>
</g>
<!-- MultiSigWallet -->
<g id="node33" class="node">
<title>MultiSigWallet</title>
<ellipse fill="none" stroke="#000000" cx="2601.2173" cy="-378" rx="71.2404" ry="18"/>
<text text-anchor="middle" x="2601.2173" y="-373.8" font-family="Times,serif" font-size="14.00" fill="#000000">MultiSigWallet</text>
</g>
<!-- Token -->
<g id="node34" class="node">
<title>Token</title>
<ellipse fill="none" stroke="#000000" cx="1932.2173" cy="-234" rx="35.9174" ry="18"/>
<text text-anchor="middle" x="1932.2173" y="-229.8" font-family="Times,serif" font-size="14.00" fill="#000000">Token</text>
</g>
<!-- Token&#45;&gt;Ownable -->
<g id="edge23" class="edge">
<title>Token-&gt;Ownable</title>
<path fill="none" stroke="#000000" d="M1898.4161,-227.5353C1836.4283,-215.5177 1709.2411,-190.047 1691.2173,-180 1683.3466,-175.6126 1649.0886,-139.5192 1625.7124,-114.3965"/>
<polygon fill="#000000" stroke="#000000" points="1628.216,-111.9489 1618.8484,-106.9993 1623.0847,-116.7103 1628.216,-111.9489"/>
</g>
<!-- ERC20 -->
<g id="node35" class="node">
<title>ERC20</title>
<ellipse fill="none" stroke="#000000" cx="1932.2173" cy="-90" rx="39.4466" ry="18"/>
<text text-anchor="middle" x="1932.2173" y="-85.8" font-family="Times,serif" font-size="14.00" fill="#000000">ERC20</text>
</g>
<!-- Token&#45;&gt;ERC20 -->
<g id="edge21" class="edge">
<title>Token-&gt;ERC20</title>
<path fill="none" stroke="#000000" d="M1960.9662,-223.2647C1979.5341,-214.6489 2002.212,-200.5637 2013.2173,-180 2020.767,-165.8932 2020.767,-158.1068 2013.2173,-144 2004.2842,-127.3083 1987.6604,-114.8851 1971.7866,-106.1907"/>
<polygon fill="#000000" stroke="#000000" points="1973.089,-102.9259 1962.5908,-101.4983 1969.9073,-109.1611 1973.089,-102.9259"/>
</g>
<!-- ERC20Detailed -->
<g id="node36" class="node">
<title>ERC20Detailed</title>
<ellipse fill="none" stroke="#000000" cx="1932.2173" cy="-162" rx="72.369" ry="18"/>
<text text-anchor="middle" x="1932.2173" y="-157.8" font-family="Times,serif" font-size="14.00" fill="#000000">ERC20Detailed</text>
</g>
<!-- Token&#45;&gt;ERC20Detailed -->
<g id="edge22" class="edge">
<title>Token-&gt;ERC20Detailed</title>
<path fill="none" stroke="#000000" d="M1932.2173,-215.8314C1932.2173,-208.131 1932.2173,-198.9743 1932.2173,-190.4166"/>
<polygon fill="#000000" stroke="#000000" points="1935.7174,-190.4132 1932.2173,-180.4133 1928.7174,-190.4133 1935.7174,-190.4132"/>
</g>
<!-- ERC20&#45;&gt;Context -->
<g id="edge25" class="edge">
<title>ERC20-&gt;Context</title>
<path fill="none" stroke="#000000" d="M1900.9434,-78.9078C1866.2316,-66.5962 1810.0265,-46.6614 1771.4311,-32.9724"/>
<polygon fill="#000000" stroke="#000000" points="1772.1288,-29.5062 1761.534,-29.4621 1769.7888,-36.1036 1772.1288,-29.5062"/>
</g>
<!-- IERC20_ -->
<g id="node37" class="node">
<title>IERC20_</title>
<ellipse fill="none" stroke="#000000" cx="1932.2173" cy="-18" rx="47.5332" ry="18"/>
<text text-anchor="middle" x="1932.2173" y="-13.8" font-family="Times,serif" font-size="14.00" fill="#000000">IERC20_</text>
</g>
<!-- ERC20&#45;&gt;IERC20_ -->
<g id="edge26" class="edge">
<title>ERC20-&gt;IERC20_</title>
<path fill="none" stroke="#000000" d="M1932.2173,-71.8314C1932.2173,-64.131 1932.2173,-54.9743 1932.2173,-46.4166"/>
<polygon fill="#000000" stroke="#000000" points="1935.7174,-46.4132 1932.2173,-36.4133 1928.7174,-46.4133 1935.7174,-46.4132"/>
</g>
<!-- ERC20Detailed&#45;&gt;ERC20 -->
<g id="edge24" class="edge">
<title>ERC20Detailed-&gt;ERC20</title>
<path fill="none" stroke="#000000" d="M1932.2173,-143.8314C1932.2173,-136.131 1932.2173,-126.9743 1932.2173,-118.4166"/>
<polygon fill="#000000" stroke="#000000" points="1935.7174,-118.4132 1932.2173,-108.4133 1928.7174,-118.4133 1935.7174,-118.4132"/>
</g>
<!-- IVestingFactory -->
<g id="node38" class="node">
<title>IVestingFactory</title>
<ellipse fill="none" stroke="#000000" cx="1771.2173" cy="-90" rx="73.5734" ry="18"/>
<text text-anchor="middle" x="1771.2173" y="-85.8" font-family="Times,serif" font-size="14.00" fill="#000000">IVestingFactory</text>
</g>
<!-- VestingRegistry3 -->
<g id="node39" class="node">
<title>VestingRegistry3</title>
<ellipse fill="none" stroke="#000000" cx="1050.2173" cy="-162" rx="78.7492" ry="18"/>
<text text-anchor="middle" x="1050.2173" y="-157.8" font-family="Times,serif" font-size="14.00" fill="#000000">VestingRegistry3</text>
</g>
<!-- VestingRegistry3&#45;&gt;Ownable -->
<g id="edge27" class="edge">
<title>VestingRegistry3-&gt;Ownable</title>
<path fill="none" stroke="#000000" d="M1107.3642,-149.5669C1117.6091,-147.5505 1128.2085,-145.6017 1138.2173,-144 1285.5085,-120.4287 1460.6167,-102.8993 1547.945,-94.8645"/>
<polygon fill="#000000" stroke="#000000" points="1548.5119,-98.3273 1558.1519,-93.9319 1547.8749,-91.3564 1548.5119,-98.3273"/>
</g>
<!-- IVestingLogic -->
<g id="node40" class="node">
<title>IVestingLogic</title>
<ellipse fill="none" stroke="#000000" cx="1721.2173" cy="-234" rx="66.6325" ry="18"/>
<text text-anchor="middle" x="1721.2173" y="-229.8" font-family="Times,serif" font-size="14.00" fill="#000000">IVestingLogic</text>
</g>
<!-- VestingStorage -->
<g id="node41" class="node">
<title>VestingStorage</title>
<ellipse fill="none" stroke="#000000" cx="1573.2173" cy="-162" rx="70.6432" ry="18"/>
<text text-anchor="middle" x="1573.2173" y="-157.8" font-family="Times,serif" font-size="14.00" fill="#000000">VestingStorage</text>
</g>
<!-- IVestingLogic&#45;&gt;VestingStorage -->
<g id="edge28" class="edge">
<title>IVestingLogic-&gt;VestingStorage</title>
<path fill="none" stroke="#000000" d="M1688.7381,-218.1993C1667.1996,-207.7211 1638.7226,-193.8674 1615.4319,-182.5368"/>
<polygon fill="#000000" stroke="#000000" points="1616.6557,-179.24 1606.1322,-178.0127 1613.5934,-185.5347 1616.6557,-179.24"/>
</g>
<!-- VestingStorage&#45;&gt;Ownable -->
<g id="edge29" class="edge">
<title>VestingStorage-&gt;Ownable</title>
<path fill="none" stroke="#000000" d="M1580.7876,-143.8314C1584.1528,-135.7547 1588.1856,-126.0761 1591.8978,-117.1668"/>
<polygon fill="#000000" stroke="#000000" points="1595.1379,-118.4904 1595.7534,-107.9134 1588.6764,-115.798 1595.1379,-118.4904"/>
</g>
<!-- VestingFactory -->
<g id="node42" class="node">
<title>VestingFactory</title>
<ellipse fill="none" stroke="#000000" cx="1771.2173" cy="-162" rx="70.6432" ry="18"/>
<text text-anchor="middle" x="1771.2173" y="-157.8" font-family="Times,serif" font-size="14.00" fill="#000000">VestingFactory</text>
</g>
<!-- VestingFactory&#45;&gt;Ownable -->
<g id="edge31" class="edge">
<title>VestingFactory-&gt;Ownable</title>
<path fill="none" stroke="#000000" d="M1734.7638,-146.3771C1707.9164,-134.871 1671.407,-119.2242 1643.6618,-107.3334"/>
<polygon fill="#000000" stroke="#000000" points="1644.8139,-104.0193 1634.2437,-103.297 1642.0564,-110.4533 1644.8139,-104.0193"/>
</g>
<!-- VestingFactory&#45;&gt;IVestingFactory -->
<g id="edge30" class="edge">
<title>VestingFactory-&gt;IVestingFactory</title>
<path fill="none" stroke="#000000" d="M1771.2173,-143.8314C1771.2173,-136.131 1771.2173,-126.9743 1771.2173,-118.4166"/>
<polygon fill="#000000" stroke="#000000" points="1774.7174,-118.4132 1771.2173,-108.4133 1767.7174,-118.4133 1774.7174,-118.4132"/>
</g>
<!-- Vesting -->
<g id="node43" class="node">
<title>Vesting</title>
<ellipse fill="none" stroke="#000000" cx="1573.2173" cy="-306" rx="41.149" ry="18"/>
<text text-anchor="middle" x="1573.2173" y="-301.8" font-family="Times,serif" font-size="14.00" fill="#000000">Vesting</text>
</g>
<!-- TeamVesting -->
<g id="node44" class="node">
<title>TeamVesting</title>
<ellipse fill="none" stroke="#000000" cx="1573.2173" cy="-234" rx="63.1189" ry="18"/>
<text text-anchor="middle" x="1573.2173" y="-229.8" font-family="Times,serif" font-size="14.00" fill="#000000">TeamVesting</text>
</g>
<!-- Vesting&#45;&gt;TeamVesting -->
<g id="edge32" class="edge">
<title>Vesting-&gt;TeamVesting</title>
<path fill="none" stroke="#000000" d="M1573.2173,-287.8314C1573.2173,-280.131 1573.2173,-270.9743 1573.2173,-262.4166"/>
<polygon fill="#000000" stroke="#000000" points="1576.7174,-262.4132 1573.2173,-252.4133 1569.7174,-262.4133 1576.7174,-262.4132"/>
</g>
<!-- TeamVesting&#45;&gt;Proxy -->
<g id="edge34" class="edge">
<title>TeamVesting-&gt;Proxy</title>
<path fill="none" stroke="#000000" d="M1539.2854,-218.7307C1512.6517,-206.7455 1475.6842,-190.1101 1448.6677,-177.9527"/>
<polygon fill="#000000" stroke="#000000" points="1449.7576,-174.6051 1439.2021,-173.6932 1446.8851,-180.9886 1449.7576,-174.6051"/>
</g>
<!-- TeamVesting&#45;&gt;VestingStorage -->
<g id="edge33" class="edge">
<title>TeamVesting-&gt;VestingStorage</title>
<path fill="none" stroke="#000000" d="M1573.2173,-215.8314C1573.2173,-208.131 1573.2173,-198.9743 1573.2173,-190.4166"/>
<polygon fill="#000000" stroke="#000000" points="1576.7174,-190.4132 1573.2173,-180.4133 1569.7174,-190.4133 1576.7174,-190.4132"/>
</g>
<!-- VestingLogic -->
<g id="node45" class="node">
<title>VestingLogic</title>
<ellipse fill="none" stroke="#000000" cx="1816.2173" cy="-378" rx="63.7025" ry="18"/>
<text text-anchor="middle" x="1816.2173" y="-373.8" font-family="Times,serif" font-size="14.00" fill="#000000">VestingLogic</text>
</g>
<!-- VestingLogic&#45;&gt;ApprovalReceiver -->
<g id="edge37" class="edge">
<title>VestingLogic-&gt;ApprovalReceiver</title>
<path fill="none" stroke="#000000" d="M1760.3501,-369.3866C1677.1914,-356.5656 1520.5738,-332.419 1426.4864,-317.913"/>
<polygon fill="#000000" stroke="#000000" points="1426.8737,-314.4314 1416.4571,-316.3667 1425.807,-321.3497 1426.8737,-314.4314"/>
</g>
<!-- VestingLogic&#45;&gt;IVesting -->
<g id="edge35" class="edge">
<title>VestingLogic-&gt;IVesting</title>
<path fill="none" stroke="#000000" d="M1833.6465,-360.5708C1842.7999,-351.4174 1854.1591,-340.0582 1864.14,-330.0773"/>
<polygon fill="#000000" stroke="#000000" points="1866.8482,-332.3189 1871.4444,-322.7729 1861.8984,-327.3691 1866.8482,-332.3189"/>
</g>
<!-- VestingLogic&#45;&gt;VestingStorage -->
<g id="edge36" class="edge">
<title>VestingLogic-&gt;VestingStorage</title>
<path fill="none" stroke="#000000" d="M1820.1054,-359.7983C1826.0176,-326.7276 1833.1043,-256.4663 1797.2173,-216 1795.8327,-214.4387 1701.0092,-191.9528 1635.1935,-176.4949"/>
<polygon fill="#000000" stroke="#000000" points="1635.8388,-173.0513 1625.3035,-174.1737 1634.2392,-179.8661 1635.8388,-173.0513"/>
</g>
<!-- IVestingRegistry -->
<g id="node46" class="node">
<title>IVestingRegistry</title>
<ellipse fill="none" stroke="#000000" cx="2767.2173" cy="-378" rx="77.0216" ry="18"/>
<text text-anchor="middle" x="2767.2173" y="-373.8" font-family="Times,serif" font-size="14.00" fill="#000000">IVestingRegistry</text>
</g>
<!-- LockedFund -->
<g id="node47" class="node">
<title>LockedFund</title>
<ellipse fill="none" stroke="#000000" cx="461.2173" cy="-378" rx="59.6974" ry="18"/>
<text text-anchor="middle" x="461.2173" y="-373.8" font-family="Times,serif" font-size="14.00" fill="#000000">LockedFund</text>
</g>
<!-- LockedFund&#45;&gt;ILockedFund -->
<g id="edge38" class="edge">
<title>LockedFund-&gt;ILockedFund</title>
<path fill="none" stroke="#000000" d="M461.2173,-359.8314C461.2173,-352.131 461.2173,-342.9743 461.2173,-334.4166"/>
<polygon fill="#000000" stroke="#000000" points="464.7174,-334.4132 461.2173,-324.4133 457.7174,-334.4133 464.7174,-334.4132"/>
</g>
<!-- ReentrancyGuard -->
<g id="node48" class="node">
<title>ReentrancyGuard</title>
<ellipse fill="none" stroke="#000000" cx="2941.2173" cy="-378" rx="79.2748" ry="18"/>
<text text-anchor="middle" x="2941.2173" y="-373.8" font-family="Times,serif" font-size="14.00" fill="#000000">ReentrancyGuard</text>
</g>
</g>
</svg>