<?xml version="1.0" encoding="UTF-8" standalone="no"?><!DOCTYPE svg PUBLIC "-//W3C//DTD SVG 1.1//EN" "http://www.w3.org/Graphics/SVG/1.1/DTD/svg11.dtd"><!-- Generated by graphviz version 2.40.1 (20161225.0304)
 --><!-- Title: G Pages: 1 --><svg xmlns="http://www.w3.org/2000/svg" xmlns:xlink="http://www.w3.org/1999/xlink" width="3694pt" height="404pt" viewBox="0.00 0.00 3693.91 404.00">
<g id="graph0" class="graph" transform="scale(1 1) rotate(0) translate(4 400)">
<title>G</title>
<polygon fill="#ffffff" stroke="transparent" points="-4,4 -4,-400 3689.911,-400 3689.911,4 -4,4"/>
<!-- LockedFund -->
<g id="node1" class="node">
<title>LockedFund</title>
<ellipse fill="none" stroke="#000000" cx="63.0633" cy="-378" rx="59.6974" ry="18"/>
<text text-anchor="middle" x="63.0633" y="-373.8" font-family="Times,serif" font-size="14.00" fill="#000000">LockedFund</text>
</g>
<!-- ILockedFund -->
<g id="node2" class="node">
<title>ILockedFund</title>
<ellipse fill="none" stroke="#000000" cx="63.0633" cy="-306" rx="63.1267" ry="18"/>
<text text-anchor="middle" x="63.0633" y="-301.8" font-family="Times,serif" font-size="14.00" fill="#000000">ILockedFund</text>
</g>
<!-- LockedFund&#45;&gt;ILockedFund -->
<g id="edge1" class="edge">
<title>LockedFund-&gt;ILockedFund</title>
<path fill="none" stroke="#000000" d="M63.0633,-359.8314C63.0633,-352.131 63.0633,-342.9743 63.0633,-334.4166"/>
<polygon fill="#000000" stroke="#000000" points="66.5634,-334.4132 63.0633,-324.4133 59.5634,-334.4133 66.5634,-334.4132"/>
</g>
<!-- IVestingLogic -->
<g id="node3" class="node">
<title>IVestingLogic</title>
<ellipse fill="none" stroke="#000000" cx="804.0633" cy="-234" rx="66.6325" ry="18"/>
<text text-anchor="middle" x="804.0633" y="-229.8" font-family="Times,serif" font-size="14.00" fill="#000000">IVestingLogic</text>
</g>
<!-- VestingStorage -->
<g id="node4" class="node">
<title>VestingStorage</title>
<ellipse fill="none" stroke="#000000" cx="876.0633" cy="-162" rx="70.6432" ry="18"/>
<text text-anchor="middle" x="876.0633" y="-157.8" font-family="Times,serif" font-size="14.00" fill="#000000">VestingStorage</text>
</g>
<!-- IVestingLogic&#45;&gt;VestingStorage -->
<g id="edge2" class="edge">
<title>IVestingLogic-&gt;VestingStorage</title>
<path fill="none" stroke="#000000" d="M821.4925,-216.5708C830.4469,-207.6164 841.5123,-196.551 851.3331,-186.7302"/>
<polygon fill="#000000" stroke="#000000" points="853.9488,-189.0642 858.5451,-179.5182 848.9991,-184.1145 853.9488,-189.0642"/>
</g>
<!-- Ownable -->
<g id="node18" class="node">
<title>Ownable</title>
<ellipse fill="none" stroke="#000000" cx="876.0633" cy="-90" rx="45.7867" ry="18"/>
<text text-anchor="middle" x="876.0633" y="-85.8" font-family="Times,serif" font-size="14.00" fill="#000000">Ownable</text>
</g>
<!-- VestingStorage&#45;&gt;Ownable -->
<g id="edge30" class="edge">
<title>VestingStorage-&gt;Ownable</title>
<path fill="none" stroke="#000000" d="M876.0633,-143.8314C876.0633,-136.131 876.0633,-126.9743 876.0633,-118.4166"/>
<polygon fill="#000000" stroke="#000000" points="879.5634,-118.4132 876.0633,-108.4133 872.5634,-118.4133 879.5634,-118.4132"/>
</g>
<!-- IOrigins -->
<g id="node5" class="node">
<title>IOrigins</title>
<ellipse fill="none" stroke="#000000" cx="2004.0633" cy="-306" rx="43.4357" ry="18"/>
<text text-anchor="middle" x="2004.0633" y="-301.8" font-family="Times,serif" font-size="14.00" fill="#000000">IOrigins</text>
</g>
<!-- IVestingRegistryLogic -->
<g id="node6" class="node">
<title>IVestingRegistryLogic</title>
<ellipse fill="none" stroke="#000000" cx="560.0633" cy="-306" rx="99.5752" ry="18"/>
<text text-anchor="middle" x="560.0633" y="-301.8" font-family="Times,serif" font-size="14.00" fill="#000000">IVestingRegistryLogic</text>
</g>
<!-- VestingRegistryStorage -->
<g id="node7" class="node">
<title>VestingRegistryStorage</title>
<ellipse fill="none" stroke="#000000" cx="411.0633" cy="-234" rx="103.0867" ry="18"/>
<text text-anchor="middle" x="411.0633" y="-229.8" font-family="Times,serif" font-size="14.00" fill="#000000">VestingRegistryStorage</text>
</g>
<!-- IVestingRegistryLogic&#45;&gt;VestingRegistryStorage -->
<g id="edge3" class="edge">
<title>IVestingRegistryLogic-&gt;VestingRegistryStorage</title>
<path fill="none" stroke="#000000" d="M525.1294,-289.1192C504.3567,-279.0814 477.8025,-266.2498 455.5424,-255.4932"/>
<polygon fill="#000000" stroke="#000000" points="456.8213,-252.2241 446.2946,-251.0245 453.7757,-258.5268 456.8213,-252.2241"/>
</g>
<!-- Initializable -->
<g id="node21" class="node">
<title>Initializable</title>
<ellipse fill="none" stroke="#000000" cx="505.0633" cy="-162" rx="57.3147" ry="18"/>
<text text-anchor="middle" x="505.0633" y="-157.8" font-family="Times,serif" font-size="14.00" fill="#000000">Initializable</text>
</g>
<!-- VestingRegistryStorage&#45;&gt;Initializable -->
<g id="edge32" class="edge">
<title>VestingRegistryStorage-&gt;Initializable</title>
<path fill="none" stroke="#000000" d="M434.2993,-216.2022C446.5192,-206.8423 461.6475,-195.2546 474.7758,-185.1989"/>
<polygon fill="#000000" stroke="#000000" points="477.2529,-187.7104 483.0634,-178.851 472.9963,-182.1532 477.2529,-187.7104"/>
</g>
<!-- AdminRole -->
<g id="node36" class="node">
<title>AdminRole</title>
<ellipse fill="none" stroke="#000000" cx="374.0633" cy="-162" rx="56.1995" ry="18"/>
<text text-anchor="middle" x="374.0633" y="-157.8" font-family="Times,serif" font-size="14.00" fill="#000000">AdminRole</text>
</g>
<!-- VestingRegistryStorage&#45;&gt;AdminRole -->
<g id="edge33" class="edge">
<title>VestingRegistryStorage-&gt;AdminRole</title>
<path fill="none" stroke="#000000" d="M401.7266,-215.8314C397.532,-207.6688 392.4965,-197.87 387.878,-188.8827"/>
<polygon fill="#000000" stroke="#000000" points="390.9526,-187.208 383.2688,-179.9134 384.7265,-190.4075 390.9526,-187.208"/>
</g>
<!-- IVesting -->
<g id="node8" class="node">
<title>IVesting</title>
<ellipse fill="none" stroke="#000000" cx="1898.0633" cy="-306" rx="44.0795" ry="18"/>
<text text-anchor="middle" x="1898.0633" y="-301.8" font-family="Times,serif" font-size="14.00" fill="#000000">IVesting</text>
</g>
<!-- IVestingFactory -->
<g id="node9" class="node">
<title>IVestingFactory</title>
<ellipse fill="none" stroke="#000000" cx="1844.0633" cy="-90" rx="73.5734" ry="18"/>
<text text-anchor="middle" x="1844.0633" y="-85.8" font-family="Times,serif" font-size="14.00" fill="#000000">IVestingFactory</text>
</g>
<!-- IStaking -->
<g id="node10" class="node">
<title>IStaking</title>
<ellipse fill="none" stroke="#000000" cx="188.0633" cy="-306" rx="43.5194" ry="18"/>
<text text-anchor="middle" x="188.0633" y="-301.8" font-family="Times,serif" font-size="14.00" fill="#000000">IStaking</text>
</g>
<!-- IApproveAndCall -->
<g id="node11" class="node">
<title>IApproveAndCall</title>
<ellipse fill="none" stroke="#000000" cx="1366.0633" cy="-234" rx="80.5219" ry="18"/>
<text text-anchor="middle" x="1366.0633" y="-229.8" font-family="Times,serif" font-size="14.00" fill="#000000">IApproveAndCall</text>
</g>
<!-- Context -->
<g id="node12" class="node">
<title>Context</title>
<ellipse fill="none" stroke="#000000" cx="584.0633" cy="-18" rx="41.7327" ry="18"/>
<text text-anchor="middle" x="584.0633" y="-13.8" font-family="Times,serif" font-size="14.00" fill="#000000">Context</text>
</g>
<!-- Address -->
<g id="node13" class="node">
<title>Address</title>
<ellipse fill="none" stroke="#000000" cx="2187.0633" cy="-378" rx="42.8557" ry="18"/>
<text text-anchor="middle" x="2187.0633" y="-373.8" font-family="Times,serif" font-size="14.00" fill="#000000">Address</text>
</g>
<!-- SafeMath -->
<g id="node14" class="node">
<title>SafeMath</title>
<ellipse fill="none" stroke="#000000" cx="2296.0633" cy="-378" rx="48.652" ry="18"/>
<text text-anchor="middle" x="2296.0633" y="-373.8" font-family="Times,serif" font-size="14.00" fill="#000000">SafeMath</text>
</g>
<!-- IERC20 -->
<g id="node15" class="node">
<title>IERC20</title>
<ellipse fill="none" stroke="#000000" cx="190.0633" cy="-18" rx="42.8771" ry="18"/>
<text text-anchor="middle" x="190.0633" y="-13.8" font-family="Times,serif" font-size="14.00" fill="#000000">IERC20</text>
</g>
<!-- SafeERC20 -->
<g id="node16" class="node">
<title>SafeERC20</title>
<ellipse fill="none" stroke="#000000" cx="2419.0633" cy="-378" rx="56.76" ry="18"/>
<text text-anchor="middle" x="2419.0633" y="-373.8" font-family="Times,serif" font-size="14.00" fill="#000000">SafeERC20</text>
</g>
<!-- ITeamVesting -->
<g id="node17" class="node">
<title>ITeamVesting</title>
<ellipse fill="none" stroke="#000000" cx="2560.0633" cy="-378" rx="66.0492" ry="18"/>
<text text-anchor="middle" x="2560.0633" y="-373.8" font-family="Times,serif" font-size="14.00" fill="#000000">ITeamVesting</text>
</g>
<!-- Ownable&#45;&gt;Context -->
<g id="edge4" class="edge">
<title>Ownable-&gt;Context</title>
<path fill="none" stroke="#000000" d="M836.9859,-80.3645C783.4759,-67.1702 687.5482,-43.5168 630.4567,-29.4395"/>
<polygon fill="#000000" stroke="#000000" points="631.1579,-26.0076 620.6108,-27.0117 629.482,-32.8041 631.1579,-26.0076"/>
</g>
<!-- ERC20 -->
<g id="node19" class="node">
<title>ERC20</title>
<ellipse fill="none" stroke="#000000" cx="190.0633" cy="-90" rx="39.4466" ry="18"/>
<text text-anchor="middle" x="190.0633" y="-85.8" font-family="Times,serif" font-size="14.00" fill="#000000">ERC20</text>
</g>
<!-- ERC20&#45;&gt;Context -->
<g id="edge5" class="edge">
<title>ERC20-&gt;Context</title>
<path fill="none" stroke="#000000" d="M226.7761,-83.2911C298.0788,-70.2611 455.295,-41.5313 535.2727,-26.9161"/>
<polygon fill="#000000" stroke="#000000" points="536.3554,-30.2762 545.5633,-25.0355 535.097,-23.3903 536.3554,-30.2762"/>
</g>
<!-- ERC20&#45;&gt;IERC20 -->
<g id="edge6" class="edge">
<title>ERC20-&gt;IERC20</title>
<path fill="none" stroke="#000000" d="M190.0633,-71.8314C190.0633,-64.131 190.0633,-54.9743 190.0633,-46.4166"/>
<polygon fill="#000000" stroke="#000000" points="193.5634,-46.4132 190.0633,-36.4133 186.5634,-46.4133 193.5634,-46.4132"/>
</g>
<!-- ReentrancyGuard -->
<g id="node20" class="node">
<title>ReentrancyGuard</title>
<ellipse fill="none" stroke="#000000" cx="2723.0633" cy="-378" rx="79.2748" ry="18"/>
<text text-anchor="middle" x="2723.0633" y="-373.8" font-family="Times,serif" font-size="14.00" fill="#000000">ReentrancyGuard</text>
</g>
<!-- ERC20Detailed -->
<g id="node22" class="node">
<title>ERC20Detailed</title>
<ellipse fill="none" stroke="#000000" cx="190.0633" cy="-162" rx="72.369" ry="18"/>
<text text-anchor="middle" x="190.0633" y="-157.8" font-family="Times,serif" font-size="14.00" fill="#000000">ERC20Detailed</text>
</g>
<!-- ERC20Detailed&#45;&gt;ERC20 -->
<g id="edge7" class="edge">
<title>ERC20Detailed-&gt;ERC20</title>
<path fill="none" stroke="#000000" d="M190.0633,-143.8314C190.0633,-136.131 190.0633,-126.9743 190.0633,-118.4166"/>
<polygon fill="#000000" stroke="#000000" points="193.5634,-118.4132 190.0633,-108.4133 186.5634,-118.4133 193.5634,-118.4132"/>
</g>
<!-- UpgradableProxy -->
<g id="node23" class="node">
<title>UpgradableProxy</title>
<ellipse fill="none" stroke="#000000" cx="1150.0633" cy="-234" rx="79.298" ry="18"/>
<text text-anchor="middle" x="1150.0633" y="-229.8" font-family="Times,serif" font-size="14.00" fill="#000000">UpgradableProxy</text>
</g>
<!-- Proxy -->
<g id="node24" class="node">
<title>Proxy</title>
<ellipse fill="none" stroke="#000000" cx="1156.0633" cy="-162" rx="34.2104" ry="18"/>
<text text-anchor="middle" x="1156.0633" y="-157.8" font-family="Times,serif" font-size="14.00" fill="#000000">Proxy</text>
</g>
<!-- UpgradableProxy&#45;&gt;Proxy -->
<g id="edge8" class="edge">
<title>UpgradableProxy-&gt;Proxy</title>
<path fill="none" stroke="#000000" d="M1151.5774,-215.8314C1152.2191,-208.131 1152.9821,-198.9743 1153.6952,-190.4166"/>
<polygon fill="#000000" stroke="#000000" points="1157.1862,-190.6694 1154.5289,-180.4133 1150.2104,-190.088 1157.1862,-190.6694"/>
</g>
<!-- GovernorVault -->
<g id="node25" class="node">
<title>GovernorVault</title>
<ellipse fill="none" stroke="#000000" cx="1034.0633" cy="-162" rx="69.4839" ry="18"/>
<text text-anchor="middle" x="1034.0633" y="-157.8" font-family="Times,serif" font-size="14.00" fill="#000000">GovernorVault</text>
</g>
<!-- GovernorVault&#45;&gt;Ownable -->
<g id="edge9" class="edge">
<title>GovernorVault-&gt;Ownable</title>
<path fill="none" stroke="#000000" d="M999.3895,-146.1993C974.552,-134.8809 941.0715,-119.624 915.2625,-107.8629"/>
<polygon fill="#000000" stroke="#000000" points="916.6823,-104.6637 906.1312,-103.7018 913.7796,-111.0335 916.6823,-104.6637"/>
</g>
<!-- MultiSigWallet -->
<g id="node26" class="node">
<title>MultiSigWallet</title>
<ellipse fill="none" stroke="#000000" cx="2891.0633" cy="-378" rx="71.2404" ry="18"/>
<text text-anchor="middle" x="2891.0633" y="-373.8" font-family="Times,serif" font-size="14.00" fill="#000000">MultiSigWallet</text>
</g>
<!-- RSKAddrValidator -->
<g id="node27" class="node">
<title>RSKAddrValidator</title>
<ellipse fill="none" stroke="#000000" cx="3066.0633" cy="-378" rx="86.2541" ry="18"/>
<text text-anchor="middle" x="3066.0633" y="-373.8" font-family="Times,serif" font-size="14.00" fill="#000000">RSKAddrValidator</text>
</g>
<!-- SafeMath96 -->
<g id="node28" class="node">
<title>SafeMath96</title>
<ellipse fill="none" stroke="#000000" cx="1554.0633" cy="-162" rx="58.4667" ry="18"/>
<text text-anchor="middle" x="1554.0633" y="-157.8" font-family="Times,serif" font-size="14.00" fill="#000000">SafeMath96</text>
</g>
<!-- ErrorDecoder -->
<g id="node29" class="node">
<title>ErrorDecoder</title>
<ellipse fill="none" stroke="#000000" cx="1529.0633" cy="-234" rx="64.2243" ry="18"/>
<text text-anchor="middle" x="1529.0633" y="-229.8" font-family="Times,serif" font-size="14.00" fill="#000000">ErrorDecoder</text>
</g>
<!-- TokenSender -->
<g id="node30" class="node">
<title>TokenSender</title>
<ellipse fill="none" stroke="#000000" cx="1693.0633" cy="-162" rx="62.5431" ry="18"/>
<text text-anchor="middle" x="1693.0633" y="-157.8" font-family="Times,serif" font-size="14.00" fill="#000000">TokenSender</text>
</g>
<!-- TokenSender&#45;&gt;Ownable -->
<g id="edge10" class="edge">
<title>TokenSender-&gt;Ownable</title>
<path fill="none" stroke="#000000" d="M1647.9881,-149.4666C1639.1191,-147.3598 1629.8421,-145.4047 1621.0633,-144 1366.0487,-103.1944 1056.9424,-93.1971 932.2345,-90.7693"/>
<polygon fill="#000000" stroke="#000000" points="932.2229,-87.2686 922.1595,-90.582 932.0927,-94.2674 932.2229,-87.2686"/>
</g>
<!-- ApprovalReceiver -->
<g id="node31" class="node">
<title>ApprovalReceiver</title>
<ellipse fill="none" stroke="#000000" cx="1466.0633" cy="-306" rx="81.6423" ry="18"/>
<text text-anchor="middle" x="1466.0633" y="-301.8" font-family="Times,serif" font-size="14.00" fill="#000000">ApprovalReceiver</text>
</g>
<!-- ApprovalReceiver&#45;&gt;IApproveAndCall -->
<g id="edge12" class="edge">
<title>ApprovalReceiver-&gt;IApproveAndCall</title>
<path fill="none" stroke="#000000" d="M1442.1108,-288.7542C1429.0955,-279.3832 1412.8133,-267.66 1398.6577,-257.468"/>
<polygon fill="#000000" stroke="#000000" points="1400.3274,-254.3573 1390.1669,-251.3546 1396.2372,-260.0381 1400.3274,-254.3573"/>
</g>
<!-- ApprovalReceiver&#45;&gt;ErrorDecoder -->
<g id="edge11" class="edge">
<title>ApprovalReceiver-&gt;ErrorDecoder</title>
<path fill="none" stroke="#000000" d="M1481.6363,-288.2022C1489.2655,-279.4832 1498.5861,-268.8311 1506.939,-259.2849"/>
<polygon fill="#000000" stroke="#000000" points="1509.7183,-261.4236 1513.6694,-251.593 1504.4503,-256.814 1509.7183,-261.4236"/>
</g>
<!-- Token -->
<g id="node32" class="node">
<title>Token</title>
<ellipse fill="none" stroke="#000000" cx="96.0633" cy="-234" rx="35.9174" ry="18"/>
<text text-anchor="middle" x="96.0633" y="-229.8" font-family="Times,serif" font-size="14.00" fill="#000000">Token</text>
</g>
<!-- Token&#45;&gt;Ownable -->
<g id="edge15" class="edge">
<title>Token-&gt;Ownable</title>
<path fill="none" stroke="#000000" d="M123.4902,-222.4716C129.2517,-220.2074 135.3228,-217.9364 141.0633,-216 197.8708,-196.838 218.8656,-209.4902 271.0633,-180 291.3186,-168.5563 287.8845,-153.6277 309.0633,-144 399.1373,-103.0532 694.8821,-93.1256 819.6927,-90.7426"/>
<polygon fill="#000000" stroke="#000000" points="819.8705,-94.24 829.8053,-90.559 819.7434,-87.2412 819.8705,-94.24"/>
</g>
<!-- Token&#45;&gt;ERC20 -->
<g id="edge13" class="edge">
<title>Token-&gt;ERC20</title>
<path fill="none" stroke="#000000" d="M94.5383,-215.9663C93.794,-196.6718 95.2419,-165.8932 109.0633,-144 119.1696,-127.9914 135.9399,-115.6535 151.6075,-106.8389"/>
<polygon fill="#000000" stroke="#000000" points="153.4449,-109.8265 160.6461,-102.0551 150.1704,-103.6396 153.4449,-109.8265"/>
</g>
<!-- Token&#45;&gt;ERC20Detailed -->
<g id="edge14" class="edge">
<title>Token-&gt;ERC20Detailed</title>
<path fill="none" stroke="#000000" d="M115.9983,-218.7307C128.6124,-209.0687 145.1722,-196.3847 159.4338,-185.4609"/>
<polygon fill="#000000" stroke="#000000" points="161.7075,-188.1281 167.5181,-179.2687 157.451,-182.5709 161.7075,-188.1281"/>
</g>
<!-- OriginsEvents -->
<g id="node33" class="node">
<title>OriginsEvents</title>
<ellipse fill="none" stroke="#000000" cx="2132.0633" cy="-306" rx="66.0704" ry="18"/>
<text text-anchor="middle" x="2132.0633" y="-301.8" font-family="Times,serif" font-size="14.00" fill="#000000">OriginsEvents</text>
</g>
<!-- OriginsAdmin -->
<g id="node34" class="node">
<title>OriginsAdmin</title>
<ellipse fill="none" stroke="#000000" cx="2132.0633" cy="-234" rx="66.6537" ry="18"/>
<text text-anchor="middle" x="2132.0633" y="-229.8" font-family="Times,serif" font-size="14.00" fill="#000000">OriginsAdmin</text>
</g>
<!-- OriginsEvents&#45;&gt;OriginsAdmin -->
<g id="edge16" class="edge">
<title>OriginsEvents-&gt;OriginsAdmin</title>
<path fill="none" stroke="#000000" d="M2132.0633,-287.8314C2132.0633,-280.131 2132.0633,-270.9743 2132.0633,-262.4166"/>
<polygon fill="#000000" stroke="#000000" points="2135.5634,-262.4132 2132.0633,-252.4133 2128.5634,-262.4133 2135.5634,-262.4132"/>
</g>
<!-- OriginsStorage -->
<g id="node35" class="node">
<title>OriginsStorage</title>
<ellipse fill="none" stroke="#000000" cx="2132.0633" cy="-162" rx="69.4993" ry="18"/>
<text text-anchor="middle" x="2132.0633" y="-157.8" font-family="Times,serif" font-size="14.00" fill="#000000">OriginsStorage</text>
</g>
<!-- OriginsAdmin&#45;&gt;OriginsStorage -->
<g id="edge17" class="edge">
<title>OriginsAdmin-&gt;OriginsStorage</title>
<path fill="none" stroke="#000000" d="M2132.0633,-215.8314C2132.0633,-208.131 2132.0633,-198.9743 2132.0633,-190.4166"/>
<polygon fill="#000000" stroke="#000000" points="2135.5634,-190.4132 2132.0633,-180.4133 2128.5634,-190.4133 2135.5634,-190.4132"/>
</g>
<!-- AdminRole&#45;&gt;Ownable -->
<g id="edge18" class="edge">
<title>AdminRole-&gt;Ownable</title>
<path fill="none" stroke="#000000" d="M415.1067,-149.6512C423.0075,-147.5539 431.2542,-145.555 439.0633,-144 574.9093,-116.9503 737.3747,-101.1395 820.7248,-94.209"/>
<polygon fill="#000000" stroke="#000000" points="821.0532,-97.6939 830.7336,-93.388 820.4809,-90.7174 821.0532,-97.6939"/>
</g>
<!-- StakingRewards -->
<g id="node37" class="node">
<title>StakingRewards</title>
<ellipse fill="none" stroke="#000000" cx="607.0633" cy="-234" rx="74.1566" ry="18"/>
<text text-anchor="middle" x="607.0633" y="-229.8" font-family="Times,serif" font-size="14.00" fill="#000000">StakingRewards</text>
</g>
<!-- StakingRewards&#45;&gt;Initializable -->
<g id="edge20" class="edge">
<title>StakingRewards-&gt;Initializable</title>
<path fill="none" stroke="#000000" d="M582.8907,-216.937C569.1017,-207.2036 551.655,-194.8883 536.7766,-184.3859"/>
<polygon fill="#000000" stroke="#000000" points="538.5484,-181.3524 528.3603,-178.4449 534.5116,-187.0712 538.5484,-181.3524"/>
</g>
<!-- StakingRewardsStorage -->
<g id="node38" class="node">
<title>StakingRewardsStorage</title>
<ellipse fill="none" stroke="#000000" cx="684.0633" cy="-162" rx="103.6508" ry="18"/>
<text text-anchor="middle" x="684.0633" y="-157.8" font-family="Times,serif" font-size="14.00" fill="#000000">StakingRewardsStorage</text>
</g>
<!-- StakingRewards&#45;&gt;StakingRewardsStorage -->
<g id="edge19" class="edge">
<title>StakingRewards-&gt;StakingRewardsStorage</title>
<path fill="none" stroke="#000000" d="M625.7028,-216.5708C635.3014,-207.5955 647.1679,-196.4996 657.689,-186.6617"/>
<polygon fill="#000000" stroke="#000000" points="660.1467,-189.1553 665.0605,-179.7689 655.3657,-184.0424 660.1467,-189.1553"/>
</g>
<!-- StakingRewardsStorage&#45;&gt;Ownable -->
<g id="edge21" class="edge">
<title>StakingRewardsStorage-&gt;Ownable</title>
<path fill="none" stroke="#000000" d="M728.112,-145.4817C759.5808,-133.6809 801.7074,-117.8835 832.9599,-106.1638"/>
<polygon fill="#000000" stroke="#000000" points="834.5631,-109.3007 842.6974,-102.5122 832.1052,-102.7463 834.5631,-109.3007"/>
</g>
<!-- StakingRewardsProxy -->
<g id="node39" class="node">
<title>StakingRewardsProxy</title>
<ellipse fill="none" stroke="#000000" cx="1124.0633" cy="-306" rx="97.2934" ry="18"/>
<text text-anchor="middle" x="1124.0633" y="-301.8" font-family="Times,serif" font-size="14.00" fill="#000000">StakingRewardsProxy</text>
</g>
<!-- StakingRewardsProxy&#45;&gt;UpgradableProxy -->
<g id="edge23" class="edge">
<title>StakingRewardsProxy-&gt;UpgradableProxy</title>
<path fill="none" stroke="#000000" d="M1130.6242,-287.8314C1133.466,-279.9617 1136.857,-270.5712 1140.0052,-261.8533"/>
<polygon fill="#000000" stroke="#000000" points="1143.3095,-263.0076 1143.4141,-252.4133 1136.7256,-260.63 1143.3095,-263.0076"/>
</g>
<!-- StakingRewardsProxy&#45;&gt;StakingRewardsStorage -->
<g id="edge22" class="edge">
<title>StakingRewardsProxy-&gt;StakingRewardsStorage</title>
<path fill="none" stroke="#000000" d="M1053.4308,-293.5538C1041.6349,-291.6051 1029.5135,-289.682 1018.0633,-288 953.8137,-278.5618 780.9237,-289.7209 728.0633,-252 707.5954,-237.3942 696.2126,-210.5814 690.1813,-190.0074"/>
<polygon fill="#000000" stroke="#000000" points="693.5249,-188.962 687.5646,-180.2027 686.7616,-190.7671 693.5249,-188.962"/>
</g>
<!-- VestingLogic -->
<g id="node40" class="node">
<title>VestingLogic</title>
<ellipse fill="none" stroke="#000000" cx="1527.0633" cy="-378" rx="63.7025" ry="18"/>
<text text-anchor="middle" x="1527.0633" y="-373.8" font-family="Times,serif" font-size="14.00" fill="#000000">VestingLogic</text>
</g>
<!-- VestingLogic&#45;&gt;VestingStorage -->
<g id="edge25" class="edge">
<title>VestingLogic-&gt;VestingStorage</title>
<path fill="none" stroke="#000000" d="M1481.6083,-365.3372C1472.8558,-363.2689 1463.7186,-361.3609 1455.0633,-360 1395.9885,-350.7113 964.1069,-362.1589 918.0633,-324 897.6382,-307.0726 884.9821,-231.869 879.404,-190.1384"/>
<polygon fill="#000000" stroke="#000000" points="882.8551,-189.5337 878.1077,-180.0621 875.9123,-190.427 882.8551,-189.5337"/>
</g>
<!-- VestingLogic&#45;&gt;IVesting -->
<g id="edge24" class="edge">
<title>VestingLogic-&gt;IVesting</title>
<path fill="none" stroke="#000000" d="M1585.6711,-370.8951C1649.9206,-362.4483 1755.7594,-346.5942 1845.0633,-324 1848.415,-323.152 1851.8588,-322.192 1855.3043,-321.1676"/>
<polygon fill="#000000" stroke="#000000" points="1856.4467,-324.4776 1864.944,-318.1494 1854.355,-317.7974 1856.4467,-324.4776"/>
</g>
<!-- VestingLogic&#45;&gt;ApprovalReceiver -->
<g id="edge26" class="edge">
<title>VestingLogic-&gt;ApprovalReceiver</title>
<path fill="none" stroke="#000000" d="M1511.9846,-360.2022C1504.6528,-351.5483 1495.7076,-340.99 1487.6665,-331.4988"/>
<polygon fill="#000000" stroke="#000000" points="1490.3146,-329.2099 1481.1799,-323.8425 1484.9737,-333.7349 1490.3146,-329.2099"/>
</g>
<!-- VestingCreator -->
<g id="node41" class="node">
<title>VestingCreator</title>
<ellipse fill="none" stroke="#000000" cx="220.0633" cy="-234" rx="70.0596" ry="18"/>
<text text-anchor="middle" x="220.0633" y="-229.8" font-family="Times,serif" font-size="14.00" fill="#000000">VestingCreator</text>
</g>
<!-- VestingCreator&#45;&gt;AdminRole -->
<g id="edge27" class="edge">
<title>VestingCreator-&gt;AdminRole</title>
<path fill="none" stroke="#000000" d="M253.8593,-218.1993C277.1767,-207.2976 308.3094,-192.7421 333.0485,-181.1758"/>
<polygon fill="#000000" stroke="#000000" points="334.6108,-184.309 342.1872,-176.9031 331.646,-177.9678 334.6108,-184.309"/>
</g>
<!-- TeamVesting -->
<g id="node42" class="node">
<title>TeamVesting</title>
<ellipse fill="none" stroke="#000000" cx="990.0633" cy="-234" rx="63.1189" ry="18"/>
<text text-anchor="middle" x="990.0633" y="-229.8" font-family="Times,serif" font-size="14.00" fill="#000000">TeamVesting</text>
</g>
<!-- TeamVesting&#45;&gt;VestingStorage -->
<g id="edge28" class="edge">
<title>TeamVesting-&gt;VestingStorage</title>
<path fill="none" stroke="#000000" d="M963.9094,-217.4817C948.2355,-207.5825 928.1086,-194.8707 911.0755,-184.113"/>
<polygon fill="#000000" stroke="#000000" points="912.8142,-181.0715 902.4903,-178.6907 909.0762,-186.9899 912.8142,-181.0715"/>
</g>
<!-- TeamVesting&#45;&gt;Proxy -->
<g id="edge29" class="edge">
<title>TeamVesting-&gt;Proxy</title>
<path fill="none" stroke="#000000" d="M1024.8623,-218.9064C1052.7569,-206.8076 1091.7669,-189.8876 1119.9923,-177.6452"/>
<polygon fill="#000000" stroke="#000000" points="1121.7089,-180.7158 1129.4903,-173.5256 1118.9234,-174.2939 1121.7089,-180.7158"/>
</g>
<!-- Vesting -->
<g id="node43" class="node">
<title>Vesting</title>
<ellipse fill="none" stroke="#000000" cx="968.0633" cy="-306" rx="41.149" ry="18"/>
<text text-anchor="middle" x="968.0633" y="-301.8" font-family="Times,serif" font-size="14.00" fill="#000000">Vesting</text>
</g>
<!-- Vesting&#45;&gt;TeamVesting -->
<g id="edge31" class="edge">
<title>Vesting-&gt;TeamVesting</title>
<path fill="none" stroke="#000000" d="M973.6148,-287.8314C975.9936,-280.0463 978.8271,-270.7729 981.4666,-262.1347"/>
<polygon fill="#000000" stroke="#000000" points="984.862,-262.9996 984.437,-252.4133 978.1675,-260.954 984.862,-262.9996"/>
</g>
<!-- DevelopmentFund -->
<g id="node44" class="node">
<title>DevelopmentFund</title>
<ellipse fill="none" stroke="#000000" cx="3253.0633" cy="-378" rx="82.8302" ry="18"/>
<text text-anchor="middle" x="3253.0633" y="-373.8" font-family="Times,serif" font-size="14.00" fill="#000000">DevelopmentFund</text>
</g>
<!-- VestingRegistryProxy -->
<g id="node45" class="node">
<title>VestingRegistryProxy</title>
<ellipse fill="none" stroke="#000000" cx="774.0633" cy="-306" rx="96.7293" ry="18"/>
<text text-anchor="middle" x="774.0633" y="-301.8" font-family="Times,serif" font-size="14.00" fill="#000000">VestingRegistryProxy</text>
</g>
<!-- VestingRegistryProxy&#45;&gt;VestingRegistryStorage -->
<g id="edge34" class="edge">
<title>VestingRegistryProxy-&gt;VestingRegistryStorage</title>
<path fill="none" stroke="#000000" d="M707.4835,-292.7941C645.9926,-280.5976 554.6059,-262.4713 489.5789,-249.5734"/>
<polygon fill="#000000" stroke="#000000" points="489.8673,-246.0624 479.3775,-247.5499 488.5054,-252.9287 489.8673,-246.0624"/>
</g>
<!-- VestingRegistryProxy&#45;&gt;UpgradableProxy -->
<g id="edge35" class="edge">
<title>VestingRegistryProxy-&gt;UpgradableProxy</title>
<path fill="none" stroke="#000000" d="M843.3736,-293.334C901.7479,-282.5875 987.4308,-266.6286 1062.0633,-252 1068.2897,-250.7796 1074.7598,-249.4924 1081.2389,-248.1905"/>
<polygon fill="#000000" stroke="#000000" points="1082.2845,-251.5501 1091.394,-246.1401 1080.899,-244.6886 1082.2845,-251.5501"/>
</g>
<!-- VestingFactory -->
<g id="node46" class="node">
<title>VestingFactory</title>
<ellipse fill="none" stroke="#000000" cx="1844.0633" cy="-162" rx="70.6432" ry="18"/>
<text text-anchor="middle" x="1844.0633" y="-157.8" font-family="Times,serif" font-size="14.00" fill="#000000">VestingFactory</text>
</g>
<!-- VestingFactory&#45;&gt;IVestingFactory -->
<g id="edge36" class="edge">
<title>VestingFactory-&gt;IVestingFactory</title>
<path fill="none" stroke="#000000" d="M1844.0633,-143.8314C1844.0633,-136.131 1844.0633,-126.9743 1844.0633,-118.4166"/>
<polygon fill="#000000" stroke="#000000" points="1847.5634,-118.4132 1844.0633,-108.4133 1840.5634,-118.4133 1847.5634,-118.4132"/>
</g>
<!-- VestingFactory&#45;&gt;Ownable -->
<g id="edge37" class="edge">
<title>VestingFactory-&gt;Ownable</title>
<path fill="none" stroke="#000000" d="M1793.7198,-149.2398C1784.25,-147.2072 1774.3927,-145.337 1765.0633,-144 1602.9602,-120.7682 1100.5006,-99.0123 931.8836,-92.1944"/>
<polygon fill="#000000" stroke="#000000" points="931.8705,-88.6912 921.7378,-91.786 931.5888,-95.6855 931.8705,-88.6912"/>
</g>
<!-- Staking -->
<g id="node47" class="node">
<title>Staking</title>
<ellipse fill="none" stroke="#000000" cx="1405.0633" cy="-378" rx="40.5886" ry="18"/>
<text text-anchor="middle" x="1405.0633" y="-373.8" font-family="Times,serif" font-size="14.00" fill="#000000">Staking</text>
</g>
<!-- Staking&#45;&gt;IStaking -->
<g id="edge38" class="edge">
<title>Staking-&gt;IStaking</title>
<path fill="none" stroke="#000000" d="M1364.2863,-377.6409C1184.6781,-375.8241 463.1981,-366.0025 241.0633,-324 237.3603,-323.2998 233.563,-322.3987 229.7848,-321.3736"/>
<polygon fill="#000000" stroke="#000000" points="230.4901,-317.9315 219.9067,-318.4233 228.4868,-324.6388 230.4901,-317.9315"/>
</g>
<!-- Staking&#45;&gt;ApprovalReceiver -->
<g id="edge40" class="edge">
<title>Staking-&gt;ApprovalReceiver</title>
<path fill="none" stroke="#000000" d="M1419.5194,-360.937C1426.896,-352.2302 1436.023,-341.4574 1444.2351,-331.7644"/>
<polygon fill="#000000" stroke="#000000" points="1447.0659,-333.8376 1450.8597,-323.9453 1441.725,-329.3126 1447.0659,-333.8376"/>
</g>
<!-- WeightedStaking -->
<g id="node48" class="node">
<title>WeightedStaking</title>
<ellipse fill="none" stroke="#000000" cx="1758.0633" cy="-306" rx="78.1714" ry="18"/>
<text text-anchor="middle" x="1758.0633" y="-301.8" font-family="Times,serif" font-size="14.00" fill="#000000">WeightedStaking</text>
</g>
<!-- Staking&#45;&gt;WeightedStaking -->
<g id="edge39" class="edge">
<title>Staking-&gt;WeightedStaking</title>
<path fill="none" stroke="#000000" d="M1435.3623,-365.867C1441.4868,-363.6999 1447.9297,-361.62 1454.0633,-360 1548.5846,-335.0351 1574.9547,-341.9071 1671.0633,-324 1677.3323,-322.8319 1683.8455,-321.5717 1690.3606,-320.2795"/>
<polygon fill="#000000" stroke="#000000" points="1691.4497,-323.6308 1700.5654,-318.2313 1690.0721,-316.7677 1691.4497,-323.6308"/>
</g>
<!-- Checkpoints -->
<g id="node52" class="node">
<title>Checkpoints</title>
<ellipse fill="none" stroke="#000000" cx="1791.0633" cy="-234" rx="59.1314" ry="18"/>
<text text-anchor="middle" x="1791.0633" y="-229.8" font-family="Times,serif" font-size="14.00" fill="#000000">Checkpoints</text>
</g>
<!-- WeightedStaking&#45;&gt;Checkpoints -->
<g id="edge47" class="edge">
<title>WeightedStaking-&gt;Checkpoints</title>
<path fill="none" stroke="#000000" d="M1766.3906,-287.8314C1770.0924,-279.7547 1774.5284,-270.0761 1778.6118,-261.1668"/>
<polygon fill="#000000" stroke="#000000" points="1781.8681,-262.4624 1782.853,-251.9134 1775.5046,-259.5458 1781.8681,-262.4624"/>
</g>
<!-- VestingRegistryLogic -->
<g id="node49" class="node">
<title>VestingRegistryLogic</title>
<ellipse fill="none" stroke="#000000" cx="346.0633" cy="-306" rx="96.1459" ry="18"/>
<text text-anchor="middle" x="346.0633" y="-301.8" font-family="Times,serif" font-size="14.00" fill="#000000">VestingRegistryLogic</text>
</g>
<!-- VestingRegistryLogic&#45;&gt;VestingRegistryStorage -->
<g id="edge41" class="edge">
<title>VestingRegistryLogic-&gt;VestingRegistryStorage</title>
<path fill="none" stroke="#000000" d="M362.1307,-288.2022C369.9433,-279.5483 379.4751,-268.99 388.0435,-259.4988"/>
<polygon fill="#000000" stroke="#000000" points="390.8523,-261.6106 394.9554,-251.8425 385.6564,-256.9199 390.8523,-261.6106"/>
</g>
<!-- StakingProxy -->
<g id="node50" class="node">
<title>StakingProxy</title>
<ellipse fill="none" stroke="#000000" cx="1303.0633" cy="-306" rx="63.7258" ry="18"/>
<text text-anchor="middle" x="1303.0633" y="-301.8" font-family="Times,serif" font-size="14.00" fill="#000000">StakingProxy</text>
</g>
<!-- StakingProxy&#45;&gt;UpgradableProxy -->
<g id="edge43" class="edge">
<title>StakingProxy-&gt;UpgradableProxy</title>
<path fill="none" stroke="#000000" d="M1270.241,-290.5542C1247.9939,-280.085 1218.3355,-266.1281 1194.0488,-254.6991"/>
<polygon fill="#000000" stroke="#000000" points="1195.2295,-251.3865 1184.691,-250.2954 1192.2489,-257.7203 1195.2295,-251.3865"/>
</g>
<!-- StakingStorage -->
<g id="node51" class="node">
<title>StakingStorage</title>
<ellipse fill="none" stroke="#000000" cx="1278.0633" cy="-162" rx="70.0828" ry="18"/>
<text text-anchor="middle" x="1278.0633" y="-157.8" font-family="Times,serif" font-size="14.00" fill="#000000">StakingStorage</text>
</g>
<!-- StakingProxy&#45;&gt;StakingStorage -->
<g id="edge42" class="edge">
<title>StakingProxy-&gt;StakingStorage</title>
<path fill="none" stroke="#000000" d="M1291.3125,-287.8241C1285.4775,-277.7142 1279.0494,-264.6495 1276.0633,-252 1271.2831,-231.7507 1272.0153,-208.2236 1273.8195,-190.3036"/>
<polygon fill="#000000" stroke="#000000" points="1277.3146,-190.5497 1275.0067,-180.2093 1270.3625,-189.732 1277.3146,-190.5497"/>
</g>
<!-- StakingStorage&#45;&gt;Ownable -->
<g id="edge44" class="edge">
<title>StakingStorage-&gt;Ownable</title>
<path fill="none" stroke="#000000" d="M1226.3117,-149.7538C1217.2494,-147.7395 1207.8957,-145.743 1199.0633,-144 1104.4843,-125.3357 993.4925,-107.7059 929.3219,-97.9283"/>
<polygon fill="#000000" stroke="#000000" points="929.4629,-94.4097 919.0509,-96.3696 928.4125,-101.3305 929.4629,-94.4097"/>
</g>
<!-- Checkpoints&#45;&gt;SafeMath96 -->
<g id="edge46" class="edge">
<title>Checkpoints-&gt;SafeMath96</title>
<path fill="none" stroke="#000000" d="M1748.9655,-221.2108C1708.8593,-209.0266 1648.3984,-190.6588 1605.465,-177.6157"/>
<polygon fill="#000000" stroke="#000000" points="1606.3547,-174.2281 1595.769,-174.6701 1604.3199,-180.9258 1606.3547,-174.2281"/>
</g>
<!-- Checkpoints&#45;&gt;StakingStorage -->
<g id="edge45" class="edge">
<title>Checkpoints-&gt;StakingStorage</title>
<path fill="none" stroke="#000000" d="M1747.4623,-221.6823C1739.0782,-219.5822 1730.3332,-217.5742 1722.0633,-216 1594.4425,-191.7067 1443.9985,-176.1028 1355.0684,-168.2064"/>
<polygon fill="#000000" stroke="#000000" points="1355.3333,-164.7163 1345.0654,-167.3277 1354.7207,-171.6895 1355.3333,-164.7163"/>
</g>
<!-- OriginsBase -->
<g id="node53" class="node">
<title>OriginsBase</title>
<ellipse fill="none" stroke="#000000" cx="2068.0633" cy="-378" rx="58.5444" ry="18"/>
<text text-anchor="middle" x="2068.0633" y="-373.8" font-family="Times,serif" font-size="14.00" fill="#000000">OriginsBase</text>
</g>
<!-- OriginsBase&#45;&gt;IOrigins -->
<g id="edge48" class="edge">
<title>OriginsBase-&gt;IOrigins</title>
<path fill="none" stroke="#000000" d="M2052.5707,-360.5708C2044.6308,-351.6385 2034.8239,-340.6056 2026.1103,-330.8029"/>
<polygon fill="#000000" stroke="#000000" points="2028.6729,-328.4175 2019.4132,-323.2687 2023.441,-333.0681 2028.6729,-328.4175"/>
</g>
<!-- OriginsBase&#45;&gt;OriginsEvents -->
<g id="edge49" class="edge">
<title>OriginsBase-&gt;OriginsEvents</title>
<path fill="none" stroke="#000000" d="M2083.5559,-360.5708C2091.4374,-351.7041 2101.1586,-340.7678 2109.8239,-331.0194"/>
<polygon fill="#000000" stroke="#000000" points="2112.4638,-333.3176 2116.4915,-323.5182 2107.2319,-328.6671 2112.4638,-333.3176"/>
</g>
<!-- ITimelock -->
<g id="node54" class="node">
<title>ITimelock</title>
<ellipse fill="none" stroke="#000000" cx="1662.0633" cy="-234" rx="51.0223" ry="18"/>
<text text-anchor="middle" x="1662.0633" y="-229.8" font-family="Times,serif" font-size="14.00" fill="#000000">ITimelock</text>
</g>
<!-- Timelock -->
<g id="node55" class="node">
<title>Timelock</title>
<ellipse fill="none" stroke="#000000" cx="1614.0633" cy="-306" rx="48.0916" ry="18"/>
<text text-anchor="middle" x="1614.0633" y="-301.8" font-family="Times,serif" font-size="14.00" fill="#000000">Timelock</text>
</g>
<!-- Timelock&#45;&gt;ErrorDecoder -->
<g id="edge50" class="edge">
<title>Timelock-&gt;ErrorDecoder</title>
<path fill="none" stroke="#000000" d="M1594.3489,-289.3008C1583.2454,-279.8954 1569.1958,-267.9946 1556.9769,-257.6444"/>
<polygon fill="#000000" stroke="#000000" points="1559.1537,-254.9015 1549.261,-251.1086 1554.6293,-260.2428 1559.1537,-254.9015"/>
</g>
<!-- Timelock&#45;&gt;ITimelock -->
<g id="edge51" class="edge">
<title>Timelock-&gt;ITimelock</title>
<path fill="none" stroke="#000000" d="M1625.9285,-288.2022C1631.5668,-279.7448 1638.4176,-269.4685 1644.632,-260.147"/>
<polygon fill="#000000" stroke="#000000" points="1647.6997,-261.855 1650.3346,-251.593 1641.8754,-257.9721 1647.6997,-261.855"/>
</g>
<!-- GovernorAlpha -->
<g id="node56" class="node">
<title>GovernorAlpha</title>
<ellipse fill="none" stroke="#000000" cx="1940.0633" cy="-234" rx="71.7737" ry="18"/>
<text text-anchor="middle" x="1940.0633" y="-229.8" font-family="Times,serif" font-size="14.00" fill="#000000">GovernorAlpha</text>
</g>
<!-- GovernorAlpha&#45;&gt;SafeMath96 -->
<g id="edge52" class="edge">
<title>GovernorAlpha-&gt;SafeMath96</title>
<path fill="none" stroke="#000000" d="M1887.4492,-221.7591C1878.0206,-219.7223 1868.2682,-217.7168 1859.0633,-216 1753.8959,-196.3848 1725.776,-201.913 1621.0633,-180 1616.3735,-179.0186 1611.5233,-177.9075 1606.6759,-176.7308"/>
<polygon fill="#000000" stroke="#000000" points="1607.3335,-173.2873 1596.782,-174.2437 1605.627,-180.0761 1607.3335,-173.2873"/>
</g>
<!-- TimelockInterface -->
<g id="node57" class="node">
<title>TimelockInterface</title>
<ellipse fill="none" stroke="#000000" cx="3436.0633" cy="-378" rx="82.1986" ry="18"/>
<text text-anchor="middle" x="3436.0633" y="-373.8" font-family="Times,serif" font-size="14.00" fill="#000000">TimelockInterface</text>
</g>
<!-- StakingInterface -->
<g id="node58" class="node">
<title>StakingInterface</title>
<ellipse fill="none" stroke="#000000" cx="3611.0633" cy="-378" rx="74.6956" ry="18"/>
<text text-anchor="middle" x="3611.0633" y="-373.8" font-family="Times,serif" font-size="14.00" fill="#000000">StakingInterface</text>
</g>
</g>
</svg>